<?xml version="1.0" encoding="utf-8"?>
<!-- Generator: Adobe Illustrator 23.1.0, SVG Export Plug-In . SVG Version: 6.00 Build 0)  -->
<svg version="1.1" id="Layer_1" xmlns="http://www.w3.org/2000/svg" xmlns:xlink="http://www.w3.org/1999/xlink" x="0px" y="0px"
	 viewBox="0 0 512 512" style="enable-background:new 0 0 512 512;" xml:space="preserve">
<style type="text/css">
	.st0{fill:#FFFFFF;}
</style>
<path class="st0" d="M376,91H136c-24.8,0-45,20.2-45,45v240c0,24.8,20.2,45,45,45h240c24.8,0,45-20.2,45-45V136
	C421,111.2,400.8,91,376,91z M256,361c-57.9,0-105-47.1-105-105s47.1-105,105-105s105,47.1,105,105S313.9,361,256,361z M361,181
	c-16.5,0-30-13.5-30-30s13.5-30,30-30s30,13.5,30,30S377.5,181,361,181z"/>
<path class="st0" d="M256,181c-41.4,0-75,33.6-75,75s33.6,75,75,75s75-33.6,75-75S297.4,181,256,181z"/>
<path class="st0" d="M436,0H76C34.6,0,0,34.6,0,76v360c0,41.4,34.6,76,76,76h360c41.4,0,76-34.6,76-76V76C512,34.6,477.4,0,436,0z
	 M451,376c0,41.4-33.6,75-75,75H136c-41.4,0-75-33.6-75-75V136c0-41.4,33.6-75,75-75h240c41.4,0,75,33.6,75,75V376z"/>
</svg>
